<svg version="1.2" xmlns="http://www.w3.org/2000/svg" viewBox="0 0 850 722" width="850" height="722"><style>.a{fill:#b71c1c}</style><path fill-rule="evenodd" class="a" d="m847.3 580.7c5.2 10.7 0.6 23.6-10.1 28.8-11 5-23.9 0.3-29-10.6-33.3-70.4-156.8-78.9-225.3-72.8l-10.7 3.5-6.6 2.1c-4.3 1.5-8.3 3.1-12.4 4.8l12.4 2.6c77.8 15.8 184.4 36.9 161.6 164.9-1.8 10.4-10.9 18-21.4 18h-3.8c-11.9-2.2-19.8-13.4-17.8-25.3 13.9-81.8-39.5-97.3-128-115.2-21.3-4.7-43-9.8-63-16-20.9 10.3-43.8 15.8-67.1 16-23.9 2-47.8-3.6-68.3-16-21 6.4-42.4 11.7-64 16-89.1 17.9-142.6 33.1-128 114.9 2 11.8-5.9 23-17.8 25.1h-3.8c-10.5 0-19.6-7.6-21.4-17.9-22.8-127.6 83.8-149 161.6-165l16-3.2-19.1-6.4-10.5-3.5h-2.4c-68.5-6.3-193 2.2-226 72.8-3.6 7.6-11.3 12.5-19.8 12.5-3.2-0.1-6.3-0.8-9.1-2.1-10.9-5.1-15.6-17.9-10.6-28.8 34.9-75.1 128-95.1 196.2-99.5-4.5-6-8-12.6-10.4-19.6h-1.1c-43.3 0.9-85.2-14.6-117.5-43.3-35.1-34.9-54-82.9-52.3-132.3-0.2-12.8 9.2-23.6 21.8-25.3 12.8 1.7 22.2 12.8 21.7 25.7-1.8 38 12.1 74.9 38.4 102.3 24.4 20.9 55.8 31.7 87.9 30.1 0-1.3 0-2.6 0-4 4.7-19.6 12.3-38.4 22.5-55.7-56.6-17-109.7-134.4-92.8-137.9-2.4-13.3-31-97.8-10.4-103.7-2.2-25.5 69.1-132.2 82.4-114.1 9 12.3-34.7 76.5-24.3 102.9 6.6-2.1 85.8-86.7 89.1-80 11.4 23.8-48.9 70.7-32 110.4 12.2 28-11.2 82.2-24 109.3q7.5-8 16-16c-0.5 18.5 12 35.3 9.5 56.8q12.4 0 24.8 0c7 1.1 13.8 3.5 20 7 12.9-9.4 27.4-16.4 42.8-20.5 11.8-3 23.9-4.5 36-4.5 8.9 0 17.8 0.7 26.6 2 1.6-4 10.4-11.7-10.6-49.2q-0.3-0.5-0.5-1c-4.1-7.9-0.9-17.5 6.9-21.5q0.2-0.1 0.4-0.2c7.6-4.5 17.4-2 21.9 5.6 19 34.6 19 43.7 16 60.7 2.5-0.5 4.8-4.5 6.9-4.5h23.8c2.7 0 5.9 4.8 9.4 4.8-4.4-17.1-5.9-24.7 13.5-59.2q0.1-0.3 0.3-0.6c4.5-7.6 14.3-10.1 21.9-5.7q0.2 0.2 0.5 0.3c7.6 4.4 10.3 14.1 5.9 21.8-22.2 39.7-7.2 48-7.2 48 22.7-3.1 45.8-0.7 67.4 7.1 12.3 4.4 23.9 10.6 34.5 18.4 6.4-3.7 13.4-6.2 20.7-7.4q12.3 0 24.8 0c-2.4-21.4 9.4-38.2 9.4-56.8q7.9 7.7 16 16c-14.5-27.7-37.1-81.3-24.9-109.9 16-39.9-43.7-86.7-32-110.6 3.2-7.2 82.5 77.5 89.1 80 10.4-26.4-33.3-90.7-24.3-102.9 13.2-18.2 84.6 88.5 82.4 114 20.6 5.9-8 90.2-10.4 103.5 16.9 3.5-36 120.5-92.7 137.6 11.4 18.2 19.5 38.3 23.9 59.3 30.7 0 60.4-11.4 83.3-32 26.4-26.6 40.3-63 38.4-100.4-0.2-12.8 9.2-23.6 21.8-25.3 12.8 1.7 22.3 12.9 21.7 25.9 1.8 50-17.1 98.5-52.3 134.1-31.6 27.6-72.4 42.6-114.4 42.1-2.4 7-5.9 13.6-10.4 19.5 67.4 4.5 157.8 24.9 192 98.4q0.2 0.4 0.4 0.8zm-289.7-93.5c50.9-16.4 70.8-28.1 66.9-57.1-6.1-45.6-48.5-100.1-88.9-114.4-17.8-5.9-36.9-6.6-55.1-2.1-12.3 1.5-24.9 0.8-36.9-2.2q-2.7-0.7-5.5-1.1h-22.2q-2.3 0.4-4.5 1.1c-11.4 3-23.3 4.1-35 3.2-9.7-2-19.6-3-29.5-3.2-8.6 0-17.1 1.1-25.4 3.2-42.1 10.6-81.6 65.1-91.9 109.4-6.8 29.8 8.8 45.2 65.2 63.2 29.9 8 58.1 21.5 83.2 39.7 14.9 7.5 31.3 11.6 48 12 26-2.1 51.1-10.7 72.9-25.1 16.6-9.4 34-17.4 52-23.8z"/></svg>