<svg version="1.2" xmlns="http://www.w3.org/2000/svg" viewBox="0 0 1600 1151" width="1600" height="1151"><style>.a{fill:#fff}.b{fill:#cb001c}.c{fill:#2a3560}</style><path class="a" d="m0 0h1600v1024h-1600z"/><path class="a" d="m0 236.2h1600v78.7h-1600z"/><path class="b" d="m0 256h1600v128h-1600z"/><path class="b" d="m0 0h1600v128h-1600z"/><path class="c" d="m0 0h801.9v512h-801.9z"/><path class="a" d="m126.7 64l14.7 46.1h49.3l-39.7 29.4 14.8 46.1-39.1-28.2-39.7 28.2 14.8-46.1-39.1-29.4h49.3z"/><path class="a" d="m382.7 64l14.7 46.1h49.3l-39.7 29.4 14.8 46.1-39.1-28.2-39.7 28.2 14.8-46.1-39.1-29.4h49.3z"/><path class="a" d="m638.7 64l14.7 46.1h49.3l-39.7 29.4 14.8 46.1-39.1-28.2-39.7 28.2 14.8-46.1-39.1-29.4h49.3z"/><path class="a" d="m254.7 192l14.7 46.1h49.3l-39.7 29.4 14.8 46.1-39.1-28.2-39.7 28.2 14.8-46.1-39.1-29.4h49.3z"/><path class="a" d="m510.7 192l14.7 46.1h49.3l-39.7 29.4 14.8 46.1-39.1-28.2-39.7 28.2 14.8-46.1-39.1-29.4h49.3z"/><path class="a" d="m126.7 320l14.7 46.1h49.3l-39.7 29.4 14.8 46.1-39.1-28.2-39.7 28.2 14.8-46.1-39.1-29.4h49.3z"/><path class="a" d="m382.7 320l14.7 46.1h49.3l-39.7 29.4 14.8 46.1-39.1-28.2-39.7 28.2 14.8-46.1-39.1-29.4h49.3z"/><path class="a" d="m638.7 320l14.7 46.1h49.3l-39.7 29.4 14.8 46.1-39.1-28.2-39.7 28.2 14.8-46.1-39.1-29.4h49.3z"/><path class="b" d="m0 512h1600v128h-1600z"/><path class="b" d="m0 768h1600v128h-1600z"/><path class="b" d="m0 1024h1600v128h-1600z"/></svg>