<svg version="1.2" xmlns="http://www.w3.org/2000/svg" viewBox="0 0 502 639" ><style>.a{fill:#333}</style><path class="a" d="m209.7 544.9c-8.7-0.7-15.1-8.3-14.4-16.9v-236.5c0-8.8 7.2-16 16-16 8.9 0 16 7.2 16 16v237.5q0 0.3 0 0.6c-0.2 8.7-7.3 15.5-16 15.4q-0.8 0-1.6-0.1z"/><path class="a" d="m273 544.9c-8.6-0.7-15-8.3-14.3-16.9v-236.5c0-8.8 7.1-16 16-16 8.8 0 16 7.2 16 16v237.5q0 0.3 0 0.6c-0.2 8.7-7.4 15.5-16 15.4q-0.8 0-1.7-0.1z"/><path class="a" d="m146.3 544.9c-8.6-0.7-15-8.3-14.3-16.9v-236.5c0-8.8 7.1-16 16-16 8.8 0 16 7.2 16 16v237.5q0 0.3 0 0.6c-0.2 8.7-7.4 15.5-16 15.4q-0.9 0-1.7-0.1z"/><path fill-rule="evenodd" class="a" d="m407.8 228.2c52 0 94.1 42.1 94.1 94v79.7c0 52-42.1 94.1-94.1 94.1h-32v46.7c-0.3 24.2-10.3 47.3-27.8 64h64c8.8 0 16 7.2 16 16 0 8.9-7.2 16-16 16h-395.9c-8.8 0-16-7.1-16-16 0-8.8 7.2-16 16-16h52.8c-16.8-17-26.2-40-25.9-64l2.6-423.7h41.6q-0.2-1.4 0-2.8c-0.2-22.4 10.1-43.6 27.8-57.3 10.3-5.8 21.8-8.9 33.6-9h10.2v-1.9c16.9-29 47.8-47.1 81.3-47.7 28.4-0.4 55.6 11.2 74.9 32 17.6 22.8 26.3 51.3 24.3 80 0.3 1.6 0.3 3.2 0 4.8h36.2v111.1h32q0.1 0 0.3 0zm-332.8 314.8q0 0 0 0.1c-0.5 32.1 25.1 58.6 57.3 59.1h151.7q0.1 0 0.3 0c32.1-0.1 58.1-26.4 57.9-58.5v-315.5h-267.2zm40.3-425h198.1c-0.6-2.4-0.6-4.9 0-7.4 1.3-20.9-5-41.7-17.6-58.5-14.2-14.8-33.9-23-54.4-22.4h-2.6c-26.1 2.8-49 18.9-60.4 42.5l-5.5 11.2-11.8-3.8c-10.7-3.5-22.3-2.4-32 3.2-13.1 7-13.1 32-13.1 32q-0.2 1.6-0.7 3.2zm-40.3 30.7v47.7h268.5v-47.4zm396.5 175.1c0-35.4-28.7-64-64-64h-32v207.7h32c35.3 0 64-28.7 64-64z"/></svg>