<svg version="1.2" xmlns="http://www.w3.org/2000/svg" viewBox="0 0 14 14" width="14" height="14"><style>.a{fill:#b71c1c}</style><path fill-rule="evenodd" class="a" d="m9.7 0.5q1.3 0.6 2.2 1.6 1 0.9 1.6 2.2 0.5 1.3 0.5 2.7c0 2.8-1.7 5.4-4.3 6.5-2.6 1.1-5.6 0.5-7.6-1.6-2.1-2-2.7-5-1.6-7.6 1.1-2.6 3.7-4.3 6.5-4.3q1.4 0 2.7 0.5zm-4.8 1.4q-1 0.4-1.8 1.2-0.8 0.8-1.2 1.8-0.4 1-0.4 2.1c0 2.2 1.3 4.2 3.4 5.1 2.1 0.8 4.4 0.4 6-1.2 1.6-1.6 2-3.9 1.2-6-0.9-2.1-2.9-3.4-5.1-3.4q-1.1 0-2.1 0.4z"/><path class="a" d="m8.3 7l-1.7 2.2q0 0.1-0.1 0.2-0.1 0-0.2 0-0.1 0-0.2 0-0.2 0-0.2-0.1-0.1-0.1-0.2-0.1 0-0.1 0-0.2-0.1-0.1 0-0.3 0-0.1 0.1-0.1l1.2-1.6-1.2-1.6q-0.1 0-0.1-0.1-0.1-0.2 0-0.3 0-0.1 0-0.2 0.1 0 0.2-0.1 0-0.1 0.2-0.1 0.1 0 0.2 0 0.1 0 0.2 0 0.1 0.1 0.1 0.2z"/></svg>