<svg version="1.2" xmlns="http://www.w3.org/2000/svg" viewBox="0 0 641 659" width="641" height="659"><style>.a{fill:#b71c1c}</style><path class="a" d="m378.6 338.3c-40.2 31.2-97.8 25.6-131.2-12.8l-9.6-6.4c-15.8-19.4-28.7-40.9-38.4-64-12.3-31.8-19.9-65.2-22.4-99.2-2.6-50.9 21.7-99.5 64-128l9.6-6.4c40.2-28.8 94.2-28.8 134.4 0l3.2 6.1c40.9 28.2 65 75.1 64 124.8-0.8 25.1-5.1 50-12.8 73.9-10.6 35.1-28 67.7-51.2 96l-3.2 3.2c-3.2 7.4-6.4 10.6-6.4 12.8z"/><path class="a" d="m641 601.4q0 0.3 0 0.6c-0.2 31.6-26 57.1-57.6 57h-528q-0.3 0-0.6 0c-29.9-0.2-54-24.6-53.8-54.4v-76.8c6.4-86.4 108.8-137.6 185.6-169.6 3 7.1 7.3 13.7 12.8 19.2l6.4 9.9c25.8 28 61.2 45.2 99.2 48 46 2.5 90.3-17.9 118.4-54.4h3.2c6.3-5.6 11.6-12.1 16-19.2 80 32 188.8 80 198.4 169.6z"/></svg>