<svg version="1.2" xmlns="http://www.w3.org/2000/svg" viewBox="0 0 467 639" width="467" height="639"><style>.a{fill:#333}</style><path fill-rule="evenodd" class="a" d="m467 625.9l-18.9 3.2c-74.1 12.5-149.7 13.2-224 1.9-74.3-15.6-145.1-44.9-208.7-86.4l-15-10.5 353.3-534.1zm-133.5-526.1l-221.7 333.1c45.6 27.7 96.1 46.4 148.8 55.1 47.1 11.7 96.3 11.7 143.3 0zm89.6 494.7q0 0 0 0l0.4 1.9zm-0.1 0l-12.1-66.5c-51.6 11.9-105.2 11.9-156.8 0-58.3-9.8-114.1-31.1-164.2-62.4l-38 58.5c55.6 32.9 116.1 56.6 179.2 70.4 63.6 9.8 128.3 9.8 191.9 0z"/><path fill-rule="evenodd" class="a" d="m204.8 398.2c-5.7-28.6 12.8-56.5 41.4-62.2 27.8-5.6 55.1 11.9 61.7 39.5 6.8 28.4-10.7 56.9-39.1 63.6-28.4 6.8-56.8-10.7-63.6-39.1q-0.2-0.9-0.4-1.8zm24.4-4.6q0 0.2 0.1 0.4c3.2 14.7 17.7 24 32.4 20.7 14.7-3.2 23.9-17.7 20.7-32.4-3.2-14.7-17.7-23.9-32.4-20.7-14.5 3.2-23.8 17.4-20.8 32z"/><path class="a" d="m298.6 241.5c14.3-3 28.4 6.3 31.3 20.7 2.9 14.4-6.4 28.4-20.7 31.3-14.4 3-28.4-6.3-31.4-20.7-2.9-14.4 6.4-28.4 20.8-31.3z"/><path class="a" d="m338.3 437.8c7.3-1.5 14.4 3.2 15.9 10.5 1.5 7.2-3.2 14.3-10.5 15.8-7.3 1.5-14.4-3.2-15.9-10.5-1.4-7.2 3.3-14.3 10.5-15.8z"/></svg>